<?xml version="1.0" encoding="utf-8"?>
<!-- Generator: Adobe Illustrator 16.0.0, SVG Export Plug-In . SVG Version: 6.00 Build 0)  -->
<!DOCTYPE svg PUBLIC "-//W3C//DTD SVG 1.1//EN" "http://www.w3.org/Graphics/SVG/1.1/DTD/svg11.dtd">
<svg version="1.1" id="Layer_1" xmlns="http://www.w3.org/2000/svg" xmlns:xlink="http://www.w3.org/1999/xlink" x="0px" y="0px"
	 width="460.667px" height="622px" viewBox="0 0 460.667 622" enable-background="new 0 0 460.667 622" xml:space="preserve">
<path fill="#A0556A" d="M133.098,612.599c8.338,8.353,21.866,8.353,30.206,0.007l120.813-120.801c8.336-8.346,8.336-21.872,0-30.205
	L163.303,340.786c-8.34-8.334-21.864-8.334-30.203,0L12.291,461.6c-8.34,8.333-8.34,21.859,0,30.193L133.098,612.599z"/>
<path fill="#CC9894" d="M164.99,10.237c-8.341-8.341-21.869-8.338-30.21,0.006L13.975,131.053c-8.335,8.341-8.338,21.859,0,30.207
	l120.812,120.812c8.335,8.335,21.859,8.335,30.198,0l120.809-120.812c8.342-8.347,8.342-21.863,0-30.204L164.99,10.237z"/>
<path fill="#8AAEA6" d="M329.42,446.495l120.808-120.812c8.34-8.336,8.34-21.863,0-30.201L329.42,174.673
	c-8.341-8.341-21.865-8.341-30.207-0.003L178.401,295.482c-8.335,8.335-8.335,21.865,0.003,30.201l120.809,120.812
	C307.555,454.842,321.079,454.836,329.42,446.495z"/>
</svg>
