<?xml version="1.0" encoding="utf-8"?>
<!-- Generator: Adobe Illustrator 16.0.0, SVG Export Plug-In . SVG Version: 6.00 Build 0)  -->
<!DOCTYPE svg PUBLIC "-//W3C//DTD SVG 1.1//EN" "http://www.w3.org/Graphics/SVG/1.1/DTD/svg11.dtd">
<svg version="1.1" id="Layer_1" xmlns="http://www.w3.org/2000/svg" xmlns:xlink="http://www.w3.org/1999/xlink" x="0px" y="0px"
	 width="529.348px" height="390.217px" viewBox="0 0 529.348 390.217" enable-background="new 0 0 529.348 390.217"
	 xml:space="preserve">
<g>
	<path opacity="0.3" fill="#A0556A" stroke="#9D9D9C" stroke-width="6.8431" stroke-miterlimit="10" d="M12.748,113.327
		c-6.97,6.97-6.97,18.27,0,25.244l100.953,100.95c6.971,6.963,18.271,6.963,25.241,0l100.949-100.95
		c6.972-6.975,6.972-18.274,0-25.244L138.942,12.374c-6.97-6.966-18.27-6.966-25.236,0L12.748,113.327z"/>
	<path opacity="0.3" fill="#8AAEA6" stroke="#9D9D9C" stroke-width="6.8431" stroke-miterlimit="10" d="M151.556,277.377
		l100.958,100.951c6.97,6.971,18.27,6.971,25.235,0L378.71,277.377c6.972-6.965,6.972-18.268,0-25.238L277.75,151.186
		c-6.966-6.967-18.266-6.967-25.235,0L151.556,252.139C144.586,259.109,144.586,270.412,151.556,277.377z"/>
	<g>
		<path fill="#CC9894" stroke="#9D9D9C" stroke-width="6.8436" stroke-miterlimit="10" d="M517.25,138.581
			c6.971-6.976,6.971-18.28,0-25.244L416.292,12.37c-6.972-6.955-18.268-6.955-25.244,0L290.079,113.337
			c-6.955,6.963-6.955,18.268,0,25.244l100.969,100.955c6.977,6.971,18.272,6.971,25.244,0L517.25,138.581z"/>
		<g>
			<path fill="#FFFFFF" stroke="#9D9D9C" stroke-width="1.4453" stroke-miterlimit="10" d="M396.836,89.642
				c7.33-0.579,14.039-5.832,16.188-12.908c2.425-7.14-0.133-15.602-6.037-20.239c-3.803-3.117-8.857-4.545-13.721-4.022
				c-10.088,0.714-18.104,10.865-16.549,20.854C377.658,82.99,387.172,90.682,396.836,89.642z"/>
			<path fill="#FFFFFF" stroke="#9D9D9C" stroke-width="1.4453" stroke-miterlimit="10" d="M360.049,85.556
				c6.716-1.032,11.933-7.748,11.126-14.535c-0.452-7.294-7.69-13.169-14.916-12.158c-4.058,0.452-7.818,2.785-9.939,6.256
				c-2.714,4.185-2.742,9.931-0.085,14.137C348.986,83.931,354.732,86.567,360.049,85.556z"/>
			<path fill="#FFFFFF" stroke="#9D9D9C" stroke-width="1.4453" stroke-miterlimit="10" d="M438.261,84.68
				c5.02-2.043,8.362-7.332,8.2-12.709c0.064-7.629-7.365-14.181-14.951-13.106c-4.574,0.452-8.822,3.436-10.738,7.656
				c-2.177,4.501-1.555,10.214,1.625,14.11C425.989,85.329,432.874,87.083,438.261,84.68z"/>
			<path fill="#FFFFFF" stroke="#9D9D9C" stroke-width="1.4453" stroke-miterlimit="10" d="M332.862,123.8
				c2.861,2.658,6.297,4.664,9.146,7.33c0.142,1.259,0.283,2.516,0.424,3.775l11.645-4.008l8.1-2.778l0.784,0.644l27.329,22.521
				l1.174,0.976l2.121-0.82l23.399-8.978l17.248-6.616l15.963-6.129c2.487-2.058,5.132-3.946,7.689-5.952
				c0.029-9.538,0-19.108,0-28.638c-5.386-1.166-10.78-2.239-16.187-3.244c-2.928,4.412-5.713,8.921-8.695,13.269
				c-3.012-4.348-5.783-8.886-8.73-13.269c-5.38,1.005-10.768,2.079-16.146,3.217c-4.348,6.545-8.561,13.162-12.881,19.75
				c-4.247-6.56-8.376-13.205-12.624-19.75c-5.38-1.111-10.767-2.212-16.146-3.217c-2.989,4.383-5.719,8.95-8.73,13.333
				c-2.954-4.412-5.768-8.894-8.651-13.333c-5.43,0.969-10.837,2.135-16.26,3.217C332.862,104.657,332.805,114.228,332.862,123.8z"
				/>
			<polygon fill="#FFFFFF" stroke="#9D9D9C" stroke-width="1.4453" stroke-miterlimit="10" points="460.013,113.563 
				465.944,128.606 465.053,128.947 450.195,134.743 434.232,140.864 416.984,147.496 393.584,156.474 391.463,157.286 
				390.29,156.312 362.96,133.782 362.176,133.138 354.077,135.923 342.432,139.938 324.781,146.004 324.718,146.025 
				324.718,165.543 344.483,158.807 356.507,154.705 358.218,154.119 359.073,154.826 370.526,164.341 377.354,170.018 
				386.325,177.468 413.407,167.296 420.277,164.723 436.778,158.53 437.681,158.176 446.83,154.749 471.089,145.623 
				478.215,160.659 504.739,120.689 			"/>
		</g>
	</g>
</g>
</svg>
