<?xml version="1.0" encoding="utf-8"?>
<!-- Generator: Adobe Illustrator 16.0.0, SVG Export Plug-In . SVG Version: 6.00 Build 0)  -->
<!DOCTYPE svg PUBLIC "-//W3C//DTD SVG 1.1//EN" "http://www.w3.org/Graphics/SVG/1.1/DTD/svg11.dtd">
<svg version="1.1" id="Layer_1" xmlns="http://www.w3.org/2000/svg" xmlns:xlink="http://www.w3.org/1999/xlink" x="0px" y="0px"
	 width="529.348px" height="390.217px" viewBox="0 0 529.348 390.217" enable-background="new 0 0 529.348 390.217"
	 xml:space="preserve">
<g>
	<path opacity="0.3" fill="#CC9894" stroke="#9D9D9C" stroke-width="6.7452" stroke-miterlimit="10" d="M513.312,139.138
		c6.87-6.87,6.87-18.012,0-24.882l-99.518-99.508c-6.868-6.863-18.003-6.863-24.875,0l-99.516,99.512
		c-6.856,6.867-6.856,18.009,0,24.879l99.516,99.512c6.872,6.856,18.007,6.856,24.875,0L513.312,139.138z"/>
	<path opacity="0.3" fill="#8AAEA6" stroke="#9D9D9C" stroke-width="6.7452" stroke-miterlimit="10" d="M152.858,275.957
		l99.51,99.51c6.869,6.868,18.01,6.868,24.872,0l99.516-99.51c6.87-6.864,6.87-18.006,0-24.876l-99.516-99.509
		c-6.862-6.867-18.003-6.867-24.872,0l-99.51,99.509C145.987,257.951,145.987,269.093,152.858,275.957z"/>
	<g>
		<path fill="#A0556A" stroke="#9D9D9C" stroke-width="6.745" stroke-miterlimit="10" d="M16.037,114.256
			c-6.871,6.867-6.871,18.009,0,24.879l99.508,99.509c6.864,6.863,18.005,6.863,24.869,0l99.51-99.509
			c6.868-6.87,6.868-18.012,0-24.879l-99.51-99.505c-6.863-6.87-18.005-6.87-24.869,0L16.037,114.256z"/>
		<g>
			<g>
				<rect x="157.108" y="62.502" fill="#FFFFFF" width="19.944" height="109.682"/>
				<path fill="#202020" d="M169.574,162.216c-1.38,0-2.487,1.111-2.487,2.495c0,1.373,1.107,2.491,2.487,2.491
					s2.496-1.118,2.496-2.491C172.069,163.327,170.954,162.216,169.574,162.216z"/>
				<rect x="157.108" y="67.488" fill="#8AAEA6" width="19.944" height="19.942"/>
				<rect x="157.108" y="92.416" fill="#A3BDB7" width="19.944" height="19.942"/>
				<rect x="157.108" y="117.343" fill="#BBCDC9" width="19.944" height="19.946"/>
				<rect x="157.108" y="142.271" fill="#D3DDDB" width="19.944" height="19.945"/>
			</g>
			<g>
				<polygon fill="#FFFFFF" points="159.471,175.155 131.084,69.212 150.35,64.049 178.729,169.993 				"/>
				<path fill="#202020" d="M168.933,162.296c-1.331,0.362-2.118,1.724-1.769,3.055c0.361,1.328,1.727,2.122,3.058,1.763
					c1.331-0.354,2.112-1.724,1.764-3.055C171.623,162.732,170.257,161.944,168.933,162.296z"/>
				<polygon fill="#A0556A" points="137.529,93.29 132.38,74.023 151.632,68.86 156.794,88.13 				"/>
				<polygon fill="#B17583" points="143.987,117.364 138.825,98.108 158.083,92.941 163.248,112.207 				"/>
				<polygon fill="#C295A0" points="150.441,141.448 145.276,122.186 164.544,117.025 169.7,136.286 				"/>
				<polygon fill="#D5B8BE" points="156.886,165.526 151.737,146.264 170.996,141.1 176.159,160.362 				"/>
			</g>
			<g>
				<polygon fill="#FFFFFF" points="162.516,177.417 107.685,82.426 124.951,72.453 179.796,167.442 				"/>
				<path fill="#202020" d="M168.327,162.55c-1.184,0.687-1.595,2.209-0.905,3.404c0.676,1.192,2.208,1.6,3.399,0.913
					c1.2-0.69,1.597-2.216,0.907-3.407C171.045,162.269,169.518,161.858,168.327,162.55z"/>
				<polygon fill="#CC9894" points="120.144,104.01 110.167,86.747 127.439,76.772 137.417,94.042 				"/>
				<polygon fill="#D6ADA8" points="132.602,125.607 122.639,108.333 139.905,98.358 149.875,115.632 				"/>
				
					<rect x="138.747" y="123.599" transform="matrix(0.4999 0.8661 -0.8661 0.4999 190.0642 -62.0031)" fill="#E0C1BE" width="19.945" height="19.944"/>
				<polygon fill="#EAD6D3" points="157.534,168.78 147.563,151.509 164.836,141.54 174.8,158.805 				"/>
			</g>
			<g>
				
					<rect x="79.476" y="123.008" transform="matrix(0.7071 0.7071 -0.7071 0.7071 133.3754 -56.0302)" fill="#FFFFFF" width="109.688" height="19.943"/>
				<path fill="#202020" d="M167.812,162.944c-0.977,0.976-0.977,2.546,0,3.522c0.976,0.976,2.55,0.976,3.525,0s0.976-2.546,0-3.522
					C170.362,161.969,168.788,161.969,167.812,162.944z"/>
				<polygon fill="#44625B" points="106.118,118.876 92.021,104.773 106.118,90.673 120.221,104.773 				"/>
				
					<rect x="113.774" y="112.432" transform="matrix(0.7071 0.7071 -0.7071 0.7071 122.7964 -51.6507)" fill="#677A74" width="19.945" height="19.942"/>
				<polygon fill="#BBCDC9" points="141.375,154.133 127.273,140.031 141.375,125.924 155.471,140.031 				"/>
				<polygon fill="#AFB6B3" points="159.003,171.759 144.902,157.656 159.003,143.552 173.101,157.656 				"/>
			</g>
			<g>
				<polygon fill="#FFFFFF" points="169.819,179.242 74.825,124.401 84.803,107.125 179.796,161.969 				"/>
				<path fill="#202020" d="M167.421,163.46c-0.69,1.19-0.278,2.717,0.905,3.407c1.191,0.687,2.718,0.279,3.401-0.913
					c0.69-1.194,0.292-2.717-0.907-3.404C169.63,161.858,168.097,162.269,167.421,163.46z"/>
				<polygon fill="#144261" points="96.426,136.863 79.144,126.893 89.123,109.622 106.389,119.59 				"/>
				<polygon fill="#144261" points="118.012,149.326 100.745,139.358 110.709,122.081 127.975,132.056 				"/>
				<polygon fill="#144261" points="139.599,161.788 122.331,151.82 132.296,134.546 149.569,144.521 				"/>
				
					<rect x="147.568" y="150.66" transform="matrix(0.8661 0.5 -0.5 0.8661 101.4112 -57.245)" fill="#144261" width="19.938" height="19.945"/>
			</g>
			<g>
				<polygon fill="#FFFFFF" points="173.574,178.682 67.627,150.291 72.791,131.032 178.729,159.418 				"/>
				<path fill="#202020" d="M167.164,164.059c-0.349,1.331,0.438,2.701,1.769,3.055c1.324,0.359,2.689-0.435,3.052-1.763
					c0.349-1.331-0.433-2.693-1.764-3.055C168.891,161.944,167.525,162.732,167.164,164.059z"/>
				
					<rect x="74.684" y="134.56" transform="matrix(0.9659 0.2588 -0.2588 0.9659 40.2903 -16.9845)" fill="#010202" width="19.938" height="19.943"/>
				
					<rect x="98.765" y="141.014" transform="matrix(0.9659 0.2589 -0.2589 0.9659 42.8005 -23.0044)" fill="#010202" width="19.939" height="19.944"/>
				<polygon fill="#010202" points="139.863,169.647 120.597,164.487 125.76,145.225 145.019,150.389 				"/>
				<polygon fill="#010202" points="163.938,176.103 144.677,170.943 149.84,151.674 169.108,156.837 				"/>
			</g>
			<g>
				<rect x="67.369" y="157.228" fill="#FFFFFF" width="109.683" height="19.945"/>
				<path fill="#A0556A" d="M167.087,164.71c0,1.373,1.107,2.491,2.487,2.491s2.496-1.118,2.496-2.491
					c0-1.383-1.116-2.495-2.496-2.495S167.087,163.327,167.087,164.71z"/>
				<rect x="72.351" y="162.216" fill="#A0556A" width="37.397" height="4.986"/>
			</g>
		</g>
	</g>
</g>
</svg>
