<?xml version="1.0" encoding="utf-8"?>
<!-- Generator: Adobe Illustrator 16.0.0, SVG Export Plug-In . SVG Version: 6.00 Build 0)  -->
<!DOCTYPE svg PUBLIC "-//W3C//DTD SVG 1.1//EN" "http://www.w3.org/Graphics/SVG/1.1/DTD/svg11.dtd">
<svg version="1.1" id="Layer_1" xmlns="http://www.w3.org/2000/svg" xmlns:xlink="http://www.w3.org/1999/xlink" x="0px" y="0px"
	 width="529.348px" height="390.217px" viewBox="0 0 529.348 390.217" enable-background="new 0 0 529.348 390.217"
	 xml:space="preserve">
<g>
	<path opacity="0.3" fill="#A0556A" stroke="#9D9D9C" stroke-width="6.9009" stroke-miterlimit="10" d="M519.056,277.83
		c7.029-7.028,7.029-18.42,0-25.456L417.245,150.567c-7.029-7.014-18.421-7.014-25.451,0L289.996,252.374
		c-7.03,7.036-7.03,18.428,0,25.456l101.798,101.806c7.03,7.023,18.422,7.023,25.451,0L519.056,277.83z"/>
	<path opacity="0.3" fill="#CC9894" stroke="#9D9D9C" stroke-width="6.9009" stroke-miterlimit="10" d="M10.291,242.287
		c-7.029,7.028-7.029,18.435,0,25.464L112.097,369.55c7.029,7.029,18.421,7.029,25.457,0l101.805-101.806
		c7.029-7.022,7.029-18.429,0-25.457l-101.805-101.8c-7.036-7.03-18.428-7.03-25.457,0L10.291,242.287z"/>
	<g>
		<path fill="#8AAEA6" stroke="#9D9D9C" stroke-width="6.9011" stroke-miterlimit="10" d="M157.294,137.849l101.819,101.807
			c7.018,7.022,18.42,7.022,25.449,0l101.814-101.807c7.028-7.036,7.028-18.427,0-25.464L284.562,10.58
			c-7.028-7.022-18.431-7.022-25.449,0L157.294,112.385C150.272,119.422,150.272,130.813,157.294,137.849z"/>
		<g>
			<path fill="#D2D3D7" d="M293.958,180.495h-45.517c0,0,1.74,0.042,2.888-1.227c1.118-1.241,1.118-2.779,1.118-2.779v-12.02h37.691
				v12.02c0,0,0,1.125,0.598,2.102C291.863,180.445,293.958,180.495,293.958,180.495z"/>
			<path fill="#FFFFFF" d="M346.882,159.214c0,4.15-3.364,7.507-7.5,7.507H204.293c-4.141,0-7.505-3.357-7.505-7.507V82.9
				c0-4.147,3.365-7.499,7.505-7.499h135.089c4.136,0,7.5,3.351,7.5,7.499V159.214z"/>
			<path fill="#D2D3D7" d="M339.382,75.402H204.293c-4.141,0-7.505,3.351-7.505,7.499v72.023h150.095V82.9
				C346.882,78.753,343.518,75.402,339.382,75.402z"/>
			<path fill="#A1AAA7" d="M339.382,75.402H204.293c-4.141,0-7.505,3.351-7.505,7.499v72.023h150.095V82.9
				C346.882,78.753,343.518,75.402,339.382,75.402z"/>
			<rect x="205.028" y="83.022" fill="#DADADA" width="133.614" height="68.744"/>
			<rect x="244.557" y="180.495" fill="#FFFFFF" width="53.465" height="3.506"/>
			<polygon opacity="0.2" fill="#FFFFFF" points="205.028,151.766 205.028,83.022 338.642,83.022 			"/>
		</g>
		
			<text transform="matrix(1 0 0 1 202.1113 137.6084)" fill="#8AAEA6" stroke="#FFFFFF" stroke-width="0.3819" stroke-miterlimit="10" font-family="'Tahoma-Bold'" font-size="62.7985">&lt;/&gt;</text>
	</g>
</g>
</svg>
